name C:\Users\tom_v\MusculoskeletalSpecialization_revisited\Results\Case_17\motion.mot
datacolumns 32
datarows 10
range 0.14057959 0.19118824
endheader 
time	pelvis_tilt	pelvis_list	pelvis_rotation	pelvis_tx	pelvis_ty	pelvis_tz	hip_flexion_r	hip_adduction_r	hip_rotation_r	knee_angle_r	ankle_angle_r	subtalar_angle_r	mtp_angle_r	hip_flexion_l	hip_adduction_l	hip_rotation_l	knee_angle_l	ankle_angle_l	subtalar_angle_l	mtp_angle_l	lumbar_extension	lumbar_bending	lumbar_rotation	arm_flex_r	arm_add_r	arm_rot_r	elbow_flex_r	arm_flex_l	arm_add_l	arm_rot_l	elbow_flex_l	
          0.14057959	        -10.98804336	          1.87066394	          0.63055118	          0.45659797	          0.88741627	          0.00629822	         12.79145328	          4.04380150	          6.97835380	        -41.34925336	         13.47887718	          1.01406003	         45.30022628	         39.50658687	          2.48787166	         -2.99103884	        -75.53236980	         14.87967741	          5.06368554	          2.75303898	         -1.68598948	         -2.11392350	          2.22728103	         15.96670885	         -0.38889776	         13.20256679	          0.84771209	         -7.93495770	         -5.35150611	         -3.02987832	         70.14218097	
          0.14620277	        -11.02612991	          2.09711109	          0.61613522	          0.47525381	          0.88945724	          0.00616053	         11.22517893	          3.51928130	          6.80874312	        -40.32694079	         12.07033402	          1.77758676	         46.84330900	         40.74605287	          2.74988883	         -3.17175490	        -74.66662877	         14.86291219	          4.71516204	          2.55761301	         -1.69930571	         -2.48630264	          2.43268489	         16.05239409	         -0.32383372	         13.08964336	          0.46938516	         -8.47345833	         -5.36519004	         -3.28425366	         71.81584528	
          0.15182596	        -11.06131494	          2.30604640	          0.60588257	          0.49399764	          0.89139733	          0.00600441	          9.68755356	          3.01138542	          6.64315987	        -39.35869340	         10.67093661	          2.61655800	         48.04838271	         41.92184952	          2.99494407	         -3.31897117	        -73.67601601	         14.71232893	          4.39489024	          2.37708914	         -1.70378957	         -2.83969375	          2.63088366	         16.07878358	         -0.28291550	         12.98641560	          0.22490585	         -8.96392867	         -5.37442252	         -3.50722921	         73.32772164	
          0.15744914	        -11.09339359	          2.49537821	          0.59910661	          0.51281156	          0.89321962	          0.00583488	          8.20406015	          2.52748191	          6.48462207	        -38.49181851	          9.28280097	          3.51622431	         48.88043139	         43.03127859	          3.22264055	         -3.42816663	        -72.55928949	         14.43325598	          4.09840951	          2.20888535	         -1.70142786	         -3.17148053	          2.82027696	         16.05960544	         -0.26052822	         12.90444869	          0.08280288	         -9.40502571	         -5.38005189	         -3.70121958	         74.67773315	
          0.16307233	        -11.12215069	          2.66473643	          0.59523706	          0.53168488	          0.89491282	          0.00565374	          6.78961901	          2.06936630	          6.33217564	        -37.74493030	          7.87648784	          4.46107108	         49.39637343	         44.07196308	          3.43394982	         -3.49669816	        -71.31939996	         14.03489704	          3.82220501	          2.05127992	         -1.69354521	         -3.48081493	          3.00008398	         16.00572388	         -0.25206881	         12.85070690	          0.01589190	         -9.79557658	         -5.38269788	         -3.86746295	         75.86449498	
          0.16869551	        -11.14744754	          2.81391506	          0.59384808	          0.55061126	          0.89646697	          0.00546208	          5.45124640	          1.63764166	          6.18504752	        -37.12282842	          6.43601108	          5.43938214	         49.63573879	         45.04253403	          3.62940407	         -3.52367601	        -69.96293763	         13.52760997	          3.56272865	          1.90344194	         -1.68100582	         -3.76703306	          3.16961599	         15.92633204	         -0.25350680	         12.82851681	          0.00005112	        -10.13510780	         -5.38296506	         -4.00668330	         76.88710824	
          0.17431869	        -11.16924650	          2.94250814	          0.59440228	          0.56958426	          0.89787320	          0.00526066	          4.19163201	          1.23307216	          6.04456971	        -36.62268050	          4.95336204	          6.44042257	         49.62346834	         45.94191291	          3.80898637	         -3.50968970	        -68.49646773	         12.92084078	          3.31691772	          1.76490479	         -1.66503110	         -4.02911065	          3.32811933	         15.82969520	         -0.26145171	         12.83830956	          0.01458071	        -10.42359201	         -5.38140966	         -4.11933766	         77.74578992	
          0.17994188	        -11.18759516	          3.05044858	          0.59622354	          0.58859875	          0.89912493	          0.00504998	          3.01045264	          0.85595647	          5.91107592	        -36.23611881	          3.42447044	          7.45247491	         49.37446439	         46.76629651	          3.97266572	         -3.45827429	        -66.92133573	         12.22527364	          3.08257254	          1.63525985	         -1.64691808	         -4.26630568	          3.47496156	         15.72211814	         -0.27336073	         12.87715666	          0.04442362	        -10.66112267	         -5.37867324	         -4.20539646	         78.44062662	
          0.18556506	        -11.20257556	          3.13809192	          0.59841189	          0.60764868	          0.90021758	          0.00482901	          1.90962652	          0.50642721	          5.78690789	        -35.96034251	          1.84723122	          8.46598203	         48.89510322	         47.50809037	          4.12174094	         -3.37294864	        -65.23175102	         11.45056863	          2.85785974	          1.51464825	         -1.62812347	         -4.47788830	          3.60912878	         15.60894047	         -0.28737994	         12.93956316	          0.07885497	        -10.84790794	         -5.37516508	         -4.26494871	         78.97152029	
          0.19118824	        -11.21436193	          3.20481115	          0.59840780	          0.62672486	          0.90114878	          0.00459451	          0.89595611	          0.18383888	          5.67401269	        -35.79853262	          0.21577603	          9.48095341	         48.19633049	         48.15635692	          4.25657548	         -3.25549234	        -63.41845644	         10.60853444	          2.64125721	          1.40244770	         -1.61037367	         -4.66085624	          3.72964703	         15.49586395	         -0.30259890	         13.02029504	          0.10964377	        -10.98471278	         -5.37008651	         -4.29909625	         79.33829599	
